<?xml version="1.0" encoding="utf-8"?>
<!-- Generator: Adobe Illustrator 16.0.0, SVG Export Plug-In . SVG Version: 6.00 Build 0)  -->
<!DOCTYPE svg PUBLIC "-//W3C//DTD SVG 1.1//EN" "http://www.w3.org/Graphics/SVG/1.1/DTD/svg11.dtd" [
	<!ENTITY ns_extend "http://ns.adobe.com/Extensibility/1.0/">
	<!ENTITY ns_ai "http://ns.adobe.com/AdobeIllustrator/10.0/">
	<!ENTITY ns_graphs "http://ns.adobe.com/Graphs/1.0/">
	<!ENTITY ns_vars "http://ns.adobe.com/Variables/1.0/">
	<!ENTITY ns_imrep "http://ns.adobe.com/ImageReplacement/1.0/">
	<!ENTITY ns_sfw "http://ns.adobe.com/SaveForWeb/1.0/">
	<!ENTITY ns_custom "http://ns.adobe.com/GenericCustomNamespace/1.0/">
	<!ENTITY ns_adobe_xpath "http://ns.adobe.com/XPath/1.0/">
]>
<svg version="1.1" id="Layer_1" xmlns:x="&ns_extend;" xmlns:i="&ns_ai;" xmlns:graph="&ns_graphs;"
	 xmlns="http://www.w3.org/2000/svg" xmlns:xlink="http://www.w3.org/1999/xlink" x="0px" y="0px" width="32px" height="32px"
	 viewBox="0 0 32 32" enable-background="new 0 0 32 32" xml:space="preserve">
<metadata>
	<sfw  xmlns="&ns_sfw;">
		<slices></slices>
		<sliceSourceBounds  height="32" width="32" bottomLeftOrigin="true" y="-32" x="0"></sliceSourceBounds>
	</sfw>
</metadata>
<g id="Page-1" sketch:type="MSPage">
	<g id="logo-_x2B_-Friendly" sketch:type="MSLayerGroup">
		<g id="logo" sketch:type="MSShapeGroup">
			<path id="Rectangle-22" fill="#E24F96" d="M3.2,0L3.2,0c1.767,0,3.2,1.433,3.2,3.2l0,0c0,1.767-1.433,3.2-3.2,3.2l0,0
				C1.433,6.4,0,4.967,0,3.2l0,0C0,1.433,1.433,0,3.2,0z"/>
			<path id="Rectangle-23" fill="#45A6DE" d="M28.8,0L28.8,0C30.567,0,32,1.433,32,3.2l0,0c0,1.767-1.433,3.2-3.2,3.2l0,0
				c-1.768,0-3.2-1.433-3.2-3.2l0,0C25.6,1.433,27.032,0,28.8,0z"/>
			<path id="Rectangle-25" fill="#4E4E4E" d="M3.2,25.6L3.2,25.6c1.767,0,3.2,1.433,3.2,3.2l0,0c0,1.768-1.433,3.2-3.2,3.2l0,0
				C1.433,32,0,30.567,0,28.8l0,0C0,27.032,1.433,25.6,3.2,25.6z"/>
			<path id="Rectangle-24" fill="#6FC2B3" d="M28.8,25.6L28.8,25.6c1.768,0,3.2,1.433,3.2,3.2l0,0c0,1.768-1.433,3.2-3.2,3.2l0,0
				c-1.768,0-3.2-1.433-3.2-3.2l0,0C25.6,27.032,27.032,25.6,28.8,25.6z"/>
		</g>
	</g>
</g>
</svg>
