<?xml version="1.0" encoding="utf-8"?>
<!-- Generator: Adobe Illustrator 16.0.0, SVG Export Plug-In . SVG Version: 6.00 Build 0)  -->
<!DOCTYPE svg PUBLIC "-//W3C//DTD SVG 1.1//EN" "http://www.w3.org/Graphics/SVG/1.1/DTD/svg11.dtd" [
	<!ENTITY ns_extend "http://ns.adobe.com/Extensibility/1.0/">
	<!ENTITY ns_ai "http://ns.adobe.com/AdobeIllustrator/10.0/">
	<!ENTITY ns_graphs "http://ns.adobe.com/Graphs/1.0/">
	<!ENTITY ns_vars "http://ns.adobe.com/Variables/1.0/">
	<!ENTITY ns_imrep "http://ns.adobe.com/ImageReplacement/1.0/">
	<!ENTITY ns_sfw "http://ns.adobe.com/SaveForWeb/1.0/">
	<!ENTITY ns_custom "http://ns.adobe.com/GenericCustomNamespace/1.0/">
	<!ENTITY ns_adobe_xpath "http://ns.adobe.com/XPath/1.0/">
]>
<svg version="1.1" id="Layer_1" xmlns:x="&ns_extend;" xmlns:i="&ns_ai;" xmlns:graph="&ns_graphs;"
	 xmlns="http://www.w3.org/2000/svg" xmlns:xlink="http://www.w3.org/1999/xlink" x="0px" y="0px" width="32px" height="32px"
	 viewBox="0 0 32 32" enable-background="new 0 0 32 32" xml:space="preserve">
<metadata>
	<sfw  xmlns="&ns_sfw;">
		<slices></slices>
		<sliceSourceBounds  height="26.838" width="32" bottomLeftOrigin="true" y="-29.419" x="0"></sliceSourceBounds>
	</sfw>
</metadata>
<path fill-rule="evenodd" clip-rule="evenodd" d="M10.064,29.419c-3.708,0-7.159-1.121-10.064-3.044
	c0.514,0.062,1.036,0.095,1.566,0.095c3.076,0,5.907-1.083,8.154-2.9c-2.873-0.055-5.297-2.013-6.133-4.705
	c0.4,0.079,0.812,0.122,1.235,0.122c0.599,0,1.178-0.083,1.729-0.238c-3.003-0.622-5.267-3.361-5.267-6.644c0-0.028,0-0.057,0-0.085
	c0.885,0.508,1.898,0.812,2.974,0.847c-1.762-1.214-2.921-3.289-2.921-5.639c0-1.242,0.324-2.406,0.889-3.406
	C5.466,7.92,10.303,10.618,15.76,10.9c-0.112-0.496-0.17-1.013-0.17-1.544c0-3.742,2.939-6.775,6.565-6.775
	c1.888,0,3.594,0.823,4.791,2.14c1.496-0.304,2.901-0.868,4.17-1.644c-0.49,1.582-1.531,2.91-2.888,3.749
	C29.558,6.661,30.822,6.297,32,5.757c-0.88,1.359-1.993,2.553-3.276,3.508c0.014,0.291,0.02,0.583,0.02,0.876
	C28.743,19.095,22.139,29.419,10.064,29.419"/>
</svg>
