<?xml version="1.0" encoding="utf-8"?>
<!-- Generator: Adobe Illustrator 16.0.0, SVG Export Plug-In . SVG Version: 6.00 Build 0)  -->
<!DOCTYPE svg PUBLIC "-//W3C//DTD SVG 1.1//EN" "http://www.w3.org/Graphics/SVG/1.1/DTD/svg11.dtd" [
	<!ENTITY ns_extend "http://ns.adobe.com/Extensibility/1.0/">
	<!ENTITY ns_ai "http://ns.adobe.com/AdobeIllustrator/10.0/">
	<!ENTITY ns_graphs "http://ns.adobe.com/Graphs/1.0/">
	<!ENTITY ns_vars "http://ns.adobe.com/Variables/1.0/">
	<!ENTITY ns_imrep "http://ns.adobe.com/ImageReplacement/1.0/">
	<!ENTITY ns_sfw "http://ns.adobe.com/SaveForWeb/1.0/">
	<!ENTITY ns_custom "http://ns.adobe.com/GenericCustomNamespace/1.0/">
	<!ENTITY ns_adobe_xpath "http://ns.adobe.com/XPath/1.0/">
]>
<svg version="1.1" id="Layer_1" xmlns:x="&ns_extend;" xmlns:i="&ns_ai;" xmlns:graph="&ns_graphs;"
	 xmlns="http://www.w3.org/2000/svg" xmlns:xlink="http://www.w3.org/1999/xlink" x="0px" y="0px" width="32px" height="32px"
	 viewBox="0 0 32 32" enable-background="new 0 0 32 32" xml:space="preserve">
<metadata>
	<sfw  xmlns="&ns_sfw;">
		<slices></slices>
		<sliceSourceBounds  height="32" width="30.721" bottomLeftOrigin="true" y="0.5" x="0.14"></sliceSourceBounds>
	</sfw>
</metadata>
<path fill-rule="evenodd" clip-rule="evenodd" d="M31.36,26.481c0-0.812-0.686-1.472-1.53-1.472c-2.114,0-3.826-1.646-3.826-3.678
	v-8.827c0-4.601-3.4-8.443-7.93-9.357c0.141-0.286,0.222-0.604,0.222-0.942C18.296,0.988,17.268,0,16,0
	c-1.269,0-2.296,0.988-2.296,2.208c0,0.337,0.081,0.656,0.222,0.942c-4.529,0.913-7.929,4.755-7.929,9.357v8.828
	c0,2.031-1.714,3.678-3.827,3.678c-0.845,0-1.53,0.658-1.53,1.471s0.686,1.472,1.53,1.472h3.827h6.941C12.938,30.188,14.31,32,16,32
	s3.062-1.812,3.062-4.046h6.942h3.826C30.675,27.952,31.36,27.294,31.36,26.481"/>
</svg>
