<?xml version="1.0" encoding="utf-8"?>
<!-- Generator: Adobe Illustrator 16.0.0, SVG Export Plug-In . SVG Version: 6.00 Build 0)  -->
<!DOCTYPE svg PUBLIC "-//W3C//DTD SVG 1.1//EN" "http://www.w3.org/Graphics/SVG/1.1/DTD/svg11.dtd" [
	<!ENTITY ns_extend "http://ns.adobe.com/Extensibility/1.0/">
	<!ENTITY ns_ai "http://ns.adobe.com/AdobeIllustrator/10.0/">
	<!ENTITY ns_graphs "http://ns.adobe.com/Graphs/1.0/">
	<!ENTITY ns_vars "http://ns.adobe.com/Variables/1.0/">
	<!ENTITY ns_imrep "http://ns.adobe.com/ImageReplacement/1.0/">
	<!ENTITY ns_sfw "http://ns.adobe.com/SaveForWeb/1.0/">
	<!ENTITY ns_custom "http://ns.adobe.com/GenericCustomNamespace/1.0/">
	<!ENTITY ns_adobe_xpath "http://ns.adobe.com/XPath/1.0/">
]>
<svg version="1.1" id="Layer_1" xmlns:x="&ns_extend;" xmlns:i="&ns_ai;" xmlns:graph="&ns_graphs;"
	 xmlns="http://www.w3.org/2000/svg" xmlns:xlink="http://www.w3.org/1999/xlink" x="0px" y="0px" width="32px" height="32px"
	 viewBox="0 0 32 32" enable-background="new 0 0 32 32" xml:space="preserve">
<metadata>
	<sfw  xmlns="&ns_sfw;">
		<slices></slices>
		<sliceSourceBounds  height="32" width="32" bottomLeftOrigin="true" y="-32" x="0"></sliceSourceBounds>
	</sfw>
</metadata>
<g id="share">
	<path d="M28,24c-0.973,0-1.832,0.391-2.523,0.965l-6.098-4.352C19.766,19.816,20,18.941,20,18c0-1.293-0.422-2.488-1.117-3.465
		l7.133-7.137C26.609,7.746,27.262,8,28,8c2.211,0,4-1.789,4-4s-1.789-4-4-4s-4,1.789-4,4c0,0.738,0.254,1.391,0.602,1.984
		l-7.133,7.137C16.484,12.418,15.297,12,14,12c-2.289,0-4.258,1.301-5.27,3.191l-4.816-1.609C3.719,12.684,2.957,12,2,12
		c-1.105,0-2,0.895-2,2s0.895,2,2,2c0.504,0,0.953-0.203,1.305-0.512l4.789,1.598C8.047,17.387,8,17.688,8,18c0,3.312,2.688,6,6,6
		c1.648,0,3.145-0.668,4.23-1.746l6.059,4.324C24.117,27.023,24,27.496,24,28c0,2.207,1.789,4,4,4s4-1.793,4-4S30.211,24,28,24z"/>
</g>
</svg>
